# xmcd
#
# Track frame offsets:
#	150
#	14360
#	27216
#	40796
#	56448
#	69424
#	83188
#	97148
#	110444
#	124605
#	140102
#	153723
#	168257
#
# Disc length: 2455 seconds
#
# Revision: 1
# Processed by: cddbd v1.5.2PL0 Copyright (c) Steve Scherf et al.
# Submitted via: audiograbber 1.83.01
#
DISCID=ab09950d
DTITLE=Truck Stop - Wilde Reiter
DYEAR=1900
DGENRE=Country
TTITLE0=So stell ich mir den Himmel vor
TTITLE1=Cops und Trucker
TTITLE2=Morgens in Montana
TTITLE3=Wilder Reiter
TTITLE4=Sagt`n Cowboy howdy, howdy
TTITLE5=Eine Hand voller Gründe
TTITLE6=Ein wahrer Freund
TTITLE7=Bock auf`n Pickup Truck
TTITLE8=Ein Mann im besten Alter
TTITLE9=Mit `ner Herde wilder Pferde
TTITLE10=Sitzt, past, wackeld und hat Luft
TTITLE11=Ohne Dich keine Liebe
TTITLE12=Immer noch wach
EXTD=
EXTT0=
EXTT1=
EXTT2=
EXTT3=
EXTT4=
EXTT5=
EXTT6=
EXTT7=
EXTT8=
EXTT9=
EXTT10=
EXTT11=
EXTT12=
PLAYORDER=
